<?xml version="1.0" encoding="utf-8"?>
<!-- Generator: Adobe Illustrator 16.0.1, SVG Export Plug-In . SVG Version: 6.00 Build 0)  -->
<!DOCTYPE svg PUBLIC "-//W3C//DTD SVG 1.1//EN" "http://www.w3.org/Graphics/SVG/1.1/DTD/svg11.dtd">
<svg version="1.1" id="Layer_1" xmlns="http://www.w3.org/2000/svg" xmlns:xlink="http://www.w3.org/1999/xlink" x="0px" y="0px"
	 width="200px" height="162.5361328px" viewBox="0 0 200 162.5361328" enable-background="new 0 0 200 162.5361328"
	 xml:space="preserve">
<path fill="#2CAAE1" d="M200,19.2402344c-7.3583984,3.2636719-15.2666016,5.4692383-23.5664062,6.4609375
	C184.9042969,20.6230469,191.4111328,12.5820312,194.4746094,3c-7.9287109,4.7026367-16.7099609,8.1171875-26.0566406,9.9570312
	C160.9335938,4.9824219,150.2695312,0,138.4677734,0c-22.6601562,0-41.0327148,18.3710938-41.0327148,41.03125
	c0,3.2158203,0.362793,6.3476562,1.0625,9.3510742c-34.1015625-1.7114258-64.3364258-18.046875-84.5737305-42.8720703
	c-3.5322266,6.0600586-5.5556641,13.1083984-5.5556641,20.628418c0,14.2358398,7.2436523,26.7949219,18.2539062,34.1533203
	c-6.7260742-0.2133789-13.0532227-2.059082-18.5849609-5.1323242c-0.0039062,0.1713867-0.0039062,0.3427734-0.0039062,0.5161133
	c0,19.8803711,14.144043,36.4638672,32.9145508,40.234375c-3.4428711,0.9375-7.0678711,1.4394531-10.8100586,1.4394531
	c-2.644043,0-5.2143555-0.2578125-7.7202148-0.7363281c5.2216797,16.3007812,20.375,28.1650391,38.3305664,28.4951172
	c-14.0429688,11.0058594-31.7353516,17.5654297-50.9599609,17.5654297c-3.3120117,0-6.578125-0.1943359-9.7880859-0.5742188
	c18.1586914,11.6425781,39.7270508,18.4365234,62.8989258,18.4365234c75.4731445,0,116.7456055-62.5244141,116.7456055-116.7470703
	c0-1.7788086-0.0400391-3.5483398-0.1191406-5.3085938C187.5429688,34.6953125,194.4990234,27.46875,200,19.2402344z"/>
</svg>
